<?xml version="1.0" standalone="no"?>
<!DOCTYPE svg PUBLIC "-//W3C//DTD SVG 20010904//EN"
 "http://www.w3.org/TR/2001/REC-SVG-20010904/DTD/svg10.dtd">
<svg version="1.0" xmlns="http://www.w3.org/2000/svg"
 width="2048.000000pt" height="2048.000000pt" viewBox="0 0 2048.000000 2048.000000"
 preserveAspectRatio="xMidYMid meet">

<g transform="translate(0.000000,2048.000000) scale(0.100000,-0.100000)"
fill="#000000" stroke="none">
<path d="M5745 19694 c-283 -14 -661 -73 -935 -146 -63 -17 -131 -34 -150 -39
-52 -11 -83 -20 -105 -29 -11 -4 -51 -17 -90 -29 -62 -20 -142 -48 -200 -71
-11 -4 -69 -27 -130 -50 -123 -48 -205 -85 -380 -171 -406 -200 -746 -424
-1132 -748 -120 -102 -490 -474 -592 -596 -317 -382 -615 -851 -789 -1245 -78
-178 -134 -315 -158 -390 -8 -25 -19 -54 -24 -65 -14 -30 -59 -170 -81 -250
-83 -300 -134 -544 -169 -820 -40 -306 -40 -329 -40 -4815 0 -2841 4 -4370 10
-4475 14 -216 35 -401 64 -575 26 -149 100 -489 115 -525 13 -31 51 -159 51
-173 0 -7 4 -20 9 -30 16 -31 29 -67 41 -107 6 -22 15 -49 20 -60 4 -11 13
-36 20 -55 7 -19 16 -45 21 -57 5 -13 13 -33 18 -45 9 -23 27 -66 57 -135 432
-999 1163 -1854 2075 -2426 132 -82 165 -102 294 -173 144 -80 424 -212 560
-263 61 -23 88 -34 128 -50 12 -5 51 -19 87 -31 36 -12 74 -25 85 -30 11 -5
54 -19 95 -31 41 -12 102 -30 135 -40 33 -9 121 -31 195 -49 74 -17 151 -35
170 -40 154 -40 537 -86 820 -100 287 -13 8452 -14 8785 0 428 17 714 59 1115
162 149 38 475 141 542 172 18 8 62 26 98 39 61 24 102 42 210 89 75 33 331
163 388 197 29 17 54 31 56 31 9 0 232 140 341 214 659 446 1200 1021 1614
1714 33 56 61 104 61 106 0 3 22 42 48 88 78 136 194 383 261 558 40 104 51
130 62 152 5 10 9 25 9 33 0 8 4 23 10 33 10 18 58 165 80 242 6 25 16 55 21
68 5 13 9 34 9 47 0 13 4 26 9 29 5 3 11 20 14 38 2 18 14 76 26 128 65 289
93 475 116 790 12 165 14 858 15 4543 0 4378 -1 4462 -36 4775 -29 260 -105
637 -168 834 -7 24 -23 77 -35 118 -12 41 -26 84 -31 95 -5 11 -15 40 -23 65
-23 69 -73 204 -91 244 -9 20 -22 51 -30 69 -370 864 -929 1587 -1678 2171
-174 136 -482 338 -663 436 -115 62 -332 172 -385 194 -25 11 -72 31 -105 46
-33 15 -87 37 -120 49 -33 13 -69 27 -80 31 -21 8 -95 36 -187 69 -29 10 -78
26 -108 36 -52 16 -69 21 -150 44 -34 9 -287 71 -365 90 -57 13 -400 67 -525
82 -84 10 -1010 13 -4625 14 -2486 1 -4547 0 -4580 -1z m7112 -4216 l2 -1436
25 -76 c51 -151 150 -267 287 -336 122 -62 61 -60 1477 -60 l1292 0 -3 -4687
c-2 -4223 -4 -4693 -18 -4743 -23 -79 -74 -198 -109 -250 -45 -68 -148 -168
-220 -215 -86 -55 -148 -83 -238 -106 -74 -19 -180 -19 -5106 -19 -4237 1
-5040 3 -5086 14 -329 83 -554 336 -591 666 -6 53 -8 2301 -7 6065 l3 5980 23
73 c27 89 56 153 96 212 135 202 327 323 554 350 37 4 1766 7 3842 6 l3775 -1
2 -1437z m2293 -1080 c0 -5 -333 -8 -740 -8 l-740 0 0 747 0 748 740 -740
c407 -407 740 -743 740 -747z"/>
<path d="M6294 12900 c-118 -24 -241 -127 -282 -238 -31 -83 -32 -204 -3 -283
25 -65 102 -156 165 -193 101 -59 5 -56 1868 -56 1231 0 1722 3 1760 11 89 19
138 47 203 113 82 84 105 142 105 267 0 80 -4 99 -30 153 -54 115 -161 198
-288 225 -63 13 -3431 14 -3498 1z"/>
<path d="M6280 10896 c-113 -31 -210 -111 -258 -213 -24 -52 -27 -70 -27 -163
0 -92 3 -112 26 -160 41 -85 99 -144 187 -187 l76 -38 3925 -3 c2978 -2 3939
0 3981 9 162 34 277 152 310 318 29 145 -65 332 -201 402 -101 51 124 48
-4064 48 -3078 0 -3920 -3 -3955 -13z"/>
<path d="M6238 8890 c-59 -22 -103 -53 -151 -104 -70 -75 -97 -147 -97 -266 0
-77 4 -93 33 -155 42 -86 122 -163 205 -197 l57 -23 3966 0 3966 0 66 33 c110
55 194 165 215 279 11 65 -2 171 -31 232 -30 64 -124 156 -194 189 l-58 27
-3965 2 c-3778 1 -3967 0 -4012 -17z"/>
<path d="M6238 6890 c-93 -35 -175 -111 -217 -200 -23 -48 -26 -68 -26 -160 0
-92 3 -112 26 -161 33 -71 110 -147 185 -185 l59 -29 3974 -3 3975 -2 63 30
c158 74 253 245 224 402 -24 129 -106 240 -220 295 l-56 28 -3970 2 c-3784 1
-3972 0 -4017 -17z"/>
<path d="M465 795 c-24 -24 -25 -27 -25 -185 0 -158 1 -161 25 -185 24 -25 27
-25 195 -25 168 0 171 0 195 25 24 24 25 27 25 185 0 158 -1 161 -25 185 -24
25 -27 25 -195 25 -168 0 -171 0 -195 -25z m237 -82 c24 -29 78 -171 75 -195
-3 -16 -12 -24 -31 -26 -23 -3 -29 3 -50 50 -13 29 -26 61 -29 71 -4 9 -12 17
-18 17 -7 0 -10 -3 -6 -6 3 -4 -1 -20 -9 -36 -9 -17 -11 -27 -5 -24 6 4 11 2
11 -3 0 -6 3 -10 8 -10 21 4 32 -3 32 -20 0 -30 -25 -42 -76 -39 -68 4 -74 20
-39 107 43 107 60 131 93 131 16 0 36 -8 44 -17z"/>
</g>
</svg>
